<svg height="496pt" viewBox="-64 0 496 496" width="496pt" xmlns="http://www.w3.org/2000/svg"><path d="m224 192h-80v112h80zm-16 96h-48v-80h48zm0 0"/><path d="m256 160h-32v-16h-16v16h-16v-16h-16v16h-16v-16h-16v16h-32v48h-16v16h16v16h-16v16h16v16h-16v16h16v48h32v16h16v-16h16v16h16v-16h16v16h16v-16h32v-48h16v-16h-16v-16h16v-16h-16v-16h16v-16h-16zm-16 160h-112v-144h112zm0 0"/><path d="m360 136h8v-136h-368v136h8c13.230469 0 24 10.769531 24 24s-10.769531 24-24 24h-8v168h32v16h-32v48h32v16h-32v64h368v-160h-32v-16h32v-48h-32v-16h32v-72h-8c-13.230469 0-24-10.769531-24-24s10.769531-24 24-24zm-312-120h16v32h-16zm32 0h16v32h-16zm32 0h16v32h-16zm32 0h16v32h-16zm176 464h-16v-32h16zm-32 0h-16v-32h16zm-32 0h-16v-32h16zm-32 0h-16v-32h16zm128-280.808594v40.808594h-32v48h32v16h-32v48h32v128h-16v-48h-144v48h-112v-32h64v-16h-16v-64h-48v-64h-16v80h48v48h-48v48h-48v-32h32v-48h-32v-16h32v-48h-32v-136.808594c18.230469-3.710937 32-19.878906 32-39.191406s-13.769531-35.480469-32-39.191406v-104.808594h16v48h144v-48h112v32h-64v16h16v64h48v64h16v-80h-48v-48h48v-48h48v104.808594c-18.230469 3.710937-32 19.878906-32 39.191406s13.769531 35.480469 32 39.191406zm0 0"/><path d="m192 48h16v16h-16zm0 0"/><path d="m64 272h16v16h-16zm0 0"/><path d="m288 208h16v16h-16zm0 0"/><path d="m160 432h16v16h-16zm0 0"/></svg>