<svg height="512pt" viewBox="0 0 512 512" width="512pt" xmlns="http://www.w3.org/2000/svg"><path d="m384 64h16v48h-16zm0 0"/><path d="m416 64h16v48h-16zm0 0"/><path d="m320 272h-16v-16h16zm0-32h-16v-16h16zm0-32h-16v-16h16zm0-32h-16v-16h16zm0 0"/><path d="m480 272h-16v-16h16zm0-32h-16v-16h16zm0-32h-16v-16h16zm0-32h-16v-16h16zm0 0"/><path d="m48 480h-16v-16h16zm0-32h-16v-16h16zm0-32h-16v-16h16zm0-32h-16v-16h16zm0 0"/><path d="m80 480h-16v-16h16zm0-32h-16v-16h16zm0-32h-16v-16h16zm0-32h-16v-16h16zm0 0"/><path d="m112 480h-16v-16h16zm0-32h-16v-16h16zm0-32h-16v-16h16zm0-32h-16v-16h16zm0 0"/><path d="m144 480h-16v-16h16zm0-32h-16v-16h16zm0-32h-16v-16h16zm0-32h-16v-16h16zm0 0"/><path d="m32 96h64v16h-64zm0 0"/><path d="m32 352h48v-224h-48zm16-208h16v144h-16zm0 160h16v32h-16zm0 0"/><path d="m96 352h48v-224h-48zm16-208h16v144h-16zm0 160h16v32h-16zm0 0"/><path d="m448 160h-112v112h112zm-16 96h-80v-80h80zm0 0"/><path d="m416 192h-48v48h48zm-16 32h-16v-16h16zm0 0"/><path d="m464 304h-272v16h-16v16h16v16h272v-16h16v-16h-16zm-16 32h-240v-16h240zm0 0"/><path d="m464 368h-272v16h-16v16h16v16h272v-16h16v-16h-16zm-16 32h-240v-16h240zm0 0"/><path d="m464 432h-272v16h-16v16h16v16h272v-16h16v-16h-16zm-16 32h-240v-16h240zm0 0"/><path d="m176 272h16v16h16v-16h16v16h16v-16h16v-16h16v-16h-16v-16h16v-16h-16v-16h-16v-16h-16v16h-16v-16h-16v16h-16v16h-16v16h16v16h-16v16h16zm16-64h48v48h-48zm0 0"/><path d="m464 64v-16h16v-16h-32v-32h-80v32h-32v16h16v16h-32v-16h-16v-16h-16v16h-16v-16h-16v16h-16v16h-16v-16h-48v16h-16v-16h-48v16h-112v448h512v-448zm-80-48h48v16h-48zm-16 32h80v80h-80zm-112 16h48v48h-48zm-64 0h16v80h-16zm-64 0h16v32h-16zm368 432h-480v-416h96v32h48v-32h16v80h48v-80h16v48h80v-48h32v64h112v-64h32zm0 0"/></svg>