<?xml version="1.0" encoding="iso-8859-1"?>
<!-- Generator: Adobe Illustrator 19.0.0, SVG Export Plug-In . SVG Version: 6.00 Build 0)  -->
<svg version="1.1" id="Capa_1" xmlns="http://www.w3.org/2000/svg" xmlns:xlink="http://www.w3.org/1999/xlink" x="0px" y="0px"
	 viewBox="0 0 476.004 476.004" style="enable-background:new 0 0 476.004 476.004;" xml:space="preserve">
<g>
	<g>
		<path d="M454.81,2.167c-0.928-0.109-1.862-0.164-2.797-0.165H23.997C10.742,2.004-0.002,12.75,0,26.005
			c0,0.937,0.055,1.874,0.165,2.805l12.232,104c1.424,12.084,11.665,21.19,23.832,21.192h43.456l35.608,149.552
			c2.548,10.831,12.226,18.476,23.352,18.448h198.72c11.126,0.028,20.804-7.617,23.352-18.448l35.608-149.552h43.456
			c12.164-0.006,22.401-9.111,23.824-21.192l12.232-104C477.388,15.646,467.973,3.718,454.81,2.167z M345.157,299.85
			c-0.857,3.609-4.083,6.156-7.792,6.152h-198.72c-3.71,0.004-6.935-2.543-7.792-6.152l-34.72-145.848h283.744L345.157,299.85z
			 M459.941,26.93l-12.216,104c-0.471,4.031-3.885,7.071-7.944,7.072H36.229c-4.059-0.001-7.473-3.041-7.944-7.072l-12.232-104
			c-0.513-4.388,2.63-8.361,7.018-8.874c0.307-0.036,0.617-0.054,0.926-0.054h428c4.418,0.001,7.999,3.584,7.998,8.002
			C459.995,26.313,459.977,26.623,459.941,26.93z"/>
	</g>
</g>
<g>
	<g>
		<path d="M189.317,272.778l-6.768-88c-0.677-8.319-7.606-14.737-15.952-14.776h-30.536c-8.837,0-16,7.163-16,16
			c0,1.209,0.137,2.414,0.408,3.592l20.312,88c1.649,7.291,8.149,12.453,15.624,12.408h16.96c8.837-0.001,16-7.165,15.999-16.001
			C189.364,273.593,189.348,273.185,189.317,272.778z M156.405,274.002l-20.344-88h30.536l6.768,88H156.405z"/>
	</g>
</g>
<g>
	<g>
		<path d="M262.588,170.049c-0.407-0.031-0.815-0.047-1.223-0.047h-46.72c-8.837,0.001-16,7.165-15.999,16.001
			c0,0.408,0.016,0.816,0.047,1.223l6.768,88c0.677,8.319,7.606,14.737,15.952,14.776h33.184
			c8.346-0.039,15.275-6.457,15.952-14.776l6.768-88C277.993,178.415,271.398,170.725,262.588,170.049z M254.597,274.002h-33.184
			l-6.784-88h0.016h46.72L254.597,274.002z"/>
	</g>
</g>
<g>
	<g>
		<path d="M343.509,170.41c-1.168-0.269-2.362-0.406-3.56-0.408h-30.536c-8.346,0.039-15.275,6.457-15.952,14.776l-6.768,88
			c-0.676,8.811,5.918,16.501,14.729,17.177c0.407,0.031,0.815,0.047,1.223,0.047h16.96c7.463,0.03,13.946-5.129,15.592-12.408
			l20.312-88C357.493,180.983,352.12,172.394,343.509,170.41z M319.605,274.002h-16.96l6.768-88h30.528L319.605,274.002z"/>
	</g>
</g>
<g>
	<g>
		<path d="M339.857,420.578c-3.07-3.178-8.134-3.266-11.312-0.196c-0.066,0.064-0.132,0.129-0.196,0.196
			c-49.891,49.896-130.784,49.899-180.68,0.008c-0.003-0.003-0.005-0.005-0.008-0.008c-3.07-3.178-8.134-3.266-11.312-0.196
			c-3.178,3.07-3.266,8.134-0.196,11.312c0.064,0.067,0.13,0.132,0.196,0.196c56.134,56.143,147.153,56.15,203.296,0.016
			c0.005-0.005,0.011-0.011,0.016-0.016C342.839,428.82,342.926,423.756,339.857,420.578z"/>
	</g>
</g>
<g>
	<g>
		<path d="M315.857,396.578c-3.07-3.178-8.134-3.266-11.312-0.196c-0.066,0.064-0.132,0.129-0.196,0.196
			c-36.664,36.584-96.024,36.584-132.688,0c-3.124-3.123-8.188-3.123-11.312,0c-3.123,3.124-3.123,8.188,0,11.312
			c42.871,42.888,112.392,42.902,155.281,0.031c0.01-0.01,0.021-0.021,0.031-0.031C318.839,404.82,318.926,399.756,315.857,396.578z
			"/>
	</g>
</g>
<g>
	<g>
		<path d="M291.857,372.578c-3.07-3.178-8.134-3.266-11.312-0.196c-0.066,0.064-0.132,0.129-0.196,0.196
			c-23.412,23.322-61.275,23.322-84.688,0c-3.124-3.123-8.188-3.123-11.312,0c-3.123,3.124-3.123,8.188,0,11.312
			c29.661,29.568,77.652,29.568,107.312,0C294.839,380.82,294.926,375.756,291.857,372.578z"/>
	</g>
</g>
<g>
	<g>
		<path d="M267.465,348.346c-3.1-2.995-8.016-2.995-11.116,0c-10.139,10.113-26.549,10.113-36.688,0
			c-3.178-3.07-8.242-2.982-11.312,0.196c-2.994,3.1-2.994,8.015,0,11.116c16.39,16.35,42.922,16.35,59.312,0
			C270.73,356.48,270.643,351.416,267.465,348.346z"/>
	</g>
</g>
<g>
</g>
<g>
</g>
<g>
</g>
<g>
</g>
<g>
</g>
<g>
</g>
<g>
</g>
<g>
</g>
<g>
</g>
<g>
</g>
<g>
</g>
<g>
</g>
<g>
</g>
<g>
</g>
<g>
</g>
</svg>
