<?xml version="1.0" encoding="iso-8859-1"?>
<!-- Generator: Adobe Illustrator 19.0.0, SVG Export Plug-In . SVG Version: 6.00 Build 0)  -->
<svg version="1.1" id="Capa_1" xmlns="http://www.w3.org/2000/svg" xmlns:xlink="http://www.w3.org/1999/xlink" x="0px" y="0px"
	 viewBox="0 0 512 512" style="enable-background:new 0 0 512 512;" xml:space="preserve">
<g>
	<g>
		<g>
			<path d="M418.133,145.067v-34.133c0-25.148-45.664-41.319-102.4-47.873V8.533c0-4.713-3.82-8.533-8.533-8.533
				s-8.533,3.82-8.533,8.533v52.892c-13.949-1.107-28.315-1.692-42.667-1.692c-14.352,0-28.718,0.584-42.667,1.692V8.533
				c0-4.713-3.82-8.533-8.533-8.533s-8.533,3.82-8.533,8.533V63.06c-56.736,6.554-102.4,22.725-102.4,47.873v34.133
				c0.967,10.602,7.474,19.9,17.103,24.441l0.105,14.113c-11.417,5.871-17.208,12.996-17.208,21.179v256
				c0,26.274,49.889,42.707,110.132,48.651c0.264,0.068,0.531,0.121,0.801,0.161c0.097,0,0.178-0.052,0.274-0.055
				C221.574,511.148,238.786,512,256,512s34.426-0.852,50.926-2.443c0.096,0.003,0.177,0.055,0.274,0.055
				c0.27-0.04,0.537-0.094,0.801-0.161c60.243-5.945,110.132-22.377,110.132-48.651v-256c0-8.183-5.792-15.308-17.067-21.087
				v-14.225C410.679,164.944,417.171,155.655,418.133,145.067z M196.267,491.508c-55.583-6.742-85.333-21.89-85.333-30.708V229.241
				c22.964,14.392,63.423,20.905,85.333,23.492V491.508z M196.267,235.539c-57.946-6.952-85.17-22.059-85.319-30.665
				c0.151-0.351,1.353-2.693,7.935-6.078c5.634-2.912,9.157-8.741,9.117-15.083v-5.965c22.043,7.847,44.973,12.932,68.267,15.137
				V235.539z M196.267,175.718c-25.127-2.059-49.724-8.355-72.75-18.622c-9.275-5-12.583-9.492-12.583-12.029V135.02
				c18.289,11.639,49.525,19.65,85.333,23.786V175.718z M298.667,493.208c-13.084,1.07-27.239,1.726-42.667,1.726
				s-29.582-0.656-42.667-1.726V160.442c13.949,1.107,28.315,1.692,42.667,1.692c14.352,0,28.718-0.584,42.667-1.692V493.208z
				 M256,145.067c-93.867,0-145.067-22.55-145.067-34.133c0-8.818,29.75-23.967,85.333-30.709v30.709
				c0,4.713,3.82,8.533,8.533,8.533s8.533-3.82,8.533-8.533V78.526C226.418,77.456,240.572,76.8,256,76.8s29.582,0.656,42.667,1.726
				v32.408c0,4.713,3.82,8.533,8.533,8.533s8.533-3.82,8.533-8.533V80.224c55.583,6.741,85.333,21.891,85.333,30.709
				C401.067,122.517,349.867,145.067,256,145.067z M393.125,198.796c6.925,3.567,7.906,6.002,7.941,6.007
				c-0.006,8.593-27.234,23.766-85.333,30.736v-42.524c5.013-0.58,10.245-1.27,16.075-2.141
				c17.809-2.494,35.304-6.868,52.192-13.048v5.885C383.959,190.057,387.486,195.887,393.125,198.796z M401.067,460.8
				c0,8.818-29.75,23.967-85.333,30.708V252.733c21.91-2.587,62.369-9.101,85.333-23.492V460.8z M388.517,157.079
				c-18.761,8.682-38.758,14.39-59.275,16.921c-4.865,0.728-9.269,1.309-13.508,1.821v-17.015
				c35.808-4.136,67.045-12.147,85.333-23.786v10.047C401.067,147.604,397.758,152.096,388.517,157.079z"/>
			<path d="M230.4,213.333v51.2c0.011,9.421,7.645,17.056,17.067,17.067h17.067c9.421-0.011,17.056-7.646,17.067-17.067v-51.2
				c-0.011-9.421-7.645-17.056-17.067-17.067h-17.067C238.045,196.277,230.411,203.912,230.4,213.333z M264.542,264.533h-17.075
				v-51.2h17.067L264.542,264.533z"/>
			<path d="M264.533,375.467h-17.067c-9.421,0.011-17.056,7.646-17.067,17.067v51.2c0.011,9.421,7.645,17.056,17.067,17.067h17.067
				c9.421-0.011,17.056-7.646,17.067-17.067v-51.2C281.589,383.112,273.955,375.477,264.533,375.467z M247.467,443.733v-51.2h17.067
				l0.009,51.2H247.467z"/>
		</g>
	</g>
</g>
<g>
</g>
<g>
</g>
<g>
</g>
<g>
</g>
<g>
</g>
<g>
</g>
<g>
</g>
<g>
</g>
<g>
</g>
<g>
</g>
<g>
</g>
<g>
</g>
<g>
</g>
<g>
</g>
<g>
</g>
</svg>
